<svg xmlns="http://www.w3.org/2000/svg" version="1.0" viewBox="0 0 2084 494"><path fill="#8000BF" fill-opacity=".9" d="M855.4 258.5c0 17 .2 24.2.3 15.8.2-8.3.2-22.3 0-31-.1-8.7-.3-1.9-.3 15.2"/><g fill="#8000FF" stroke-width="0"><path d="M34.1 17.6c-13.3 4.8-21.8 14.6-24 27.5C9.4 49.5 9 80.2 9 140.3c0 76.4-.2 89.6-1.6 95.9-1.7 8-5.4 27.8-5.4 29.1 0 .4 5.5.6 12.3.5 12.2-.3 12.2-.3 13.9-7.3 5.2-20.8 5.1-19 5.5-116 .2-50.1.5-91.9.8-93 .8-3.7 6.4-8.5 9.9-8.5 5.3 0 10.8 4.6 34.2 28.2 36.7 37 58.9 58.5 62.1 60.1 2.8 1.5 3.6 1.4 14.9-1.9 48.2-14.1 81-17.2 121.4-11.4 15.1 2.1 27.8 5.2 41.5 10 18.5 6.4 16.9 6.2 21.4 3 4.1-3 11.6-10.3 57.1-55.4C424.6 46.3 431 41 436.6 41c3.7 0 8.3 4 8.5 7.5.1 1.1.2 42.7.3 92.5.1 90.5.1 90.5 2.8 105 4 22 2.6 20.4 16.6 19.6 6.4-.4 11.8-.8 11.9-1 .1-.1-1-6-2.5-13.2-2.7-12.9-2.7-12.9-2.4-103.8.2-59.6-.1-93.5-.8-98.4-1.9-13.5-8.1-23.2-18.9-29.4-5.3-3.1-6.1-3.3-16.1-3.3s-10.8.1-16.7 3.4c-8.6 4.6-21.9 16.6-58.1 52.5-31.2 31-31.2 31-36 29.4-15.7-5.4-34.4-9.6-56.9-12.8-9-1.3-45.3-1.3-55.3 0-14.8 1.9-39 6.6-52 10-4.1 1.1-8.6 2-9.9 2-3.1 0-9.9-6-37.4-33.3-39.7-39.3-44.2-43.4-52-47.4-8.7-4.4-19.9-5.5-27.6-2.7m633.3 111.2c-18.2.2-18.2.2-18.9 21.5-.4 11.6-.5 54.7-.3 95.7.4 72.3.5 74.7 2.5 82.1 5.2 18.7 14.6 31.7 28.4 39.6 10.7 6.1 16.9 7.4 33.5 7.1 13.9-.3 13.9-.3 14.2-17.7.1-9.6-.2-17.9-.7-18.4s-5.8-1-11.7-1.1c-12.4-.3-15.1-1.3-20.6-7.4-6.8-7.5-6.3.5-6.4-105.1 0-59.6-.4-96.5-1-96.5-.5-.1-9.1 0-19 .2m433.2 69.2c-29.6 4.7-50.5 20.4-63 47.3-9.9 21.3-11.9 44.8-6 70.7 6.7 29.1 35.7 54.7 69.2 61.1 8.9 1.7 28.8.6 38.2-2.1 10.7-3 24.3-10.1 32.8-17.1 11-9.1 11-9 1.3-20.3-8-9.3-12.5-13.6-14.2-13.6-.4 0-2.5 1.6-4.6 3.5-11.2 10.4-20.9 14.6-35.3 15.3-17.1.7-28.1-3.3-39.6-14.7-5.9-5.8-12.2-17.7-12.6-23.6-.3-4-.3-4 60.2-4.3 55.5-.2 60.6-.3 61.8-1.9.8-1.1 1.2-5.8 1.2-14.7-.1-37.9-15.1-64.7-44.5-79.1-3.8-1.9-9.6-4.1-12.7-4.9-7.4-1.9-24.7-2.7-32.2-1.6m29.6 36.8c11.9 5.8 20.8 18 21.6 29.4.4 5.8.4 5.8-42.3 5.8s-42.7 0-42.1-3.3c1.2-6.1 7.4-17.2 12.7-22.5 9.9-10 18.5-13.3 33.9-12.9 8.5.2 10.3.6 16.2 3.5m424.8-36.3c-23.2 4.4-41.9 17.1-53.8 36.5-10.4 16.8-14.2 31.1-14.2 52.7 0 19.3 1.6 27.9 8.1 43.1 8.7 20.2 30.4 37.6 54.4 43.5 14.4 3.6 18.2 3.9 29.7 2.7 23.6-2.5 38.4-9.1 54.3-24.2 6.8-6.4 6.8-6.4-4-17.6-5.9-6.2-11.2-11.2-11.9-11.2-.6 0-4.3 2.4-8.1 5.3-12.9 9.7-24.4 13.7-39.2 13.7-9.2 0-18.5-2-21.4-4.6-.8-.8-1.9-1.4-2.3-1.4-2 0-12.4-10.1-15.8-15.5-4.1-6.3-8.6-19.1-7.2-20.5.5-.4 27.8-1 60.6-1.2 32.9-.3 60.1-.8 60.5-1.2 1.4-1.3 1.6-18.5.4-29.6-3.8-36.6-21.2-58.9-53.6-69-9.1-2.8-26.1-3.5-36.5-1.5m28.3 34.2c7.8 2.4 17.4 10.5 21.4 17.8 2.1 3.9 4.3 12.1 4.3 16.2 0 3.3 0 3.3-42 3.3-47.5 0-43.3.9-40.5-8.4 4.4-14.6 20.8-28.5 35.9-30.6 7.3-1 14.4-.4 20.9 1.7"/><path d="M162.5 199.9c-36.7 8.2-61.4 40.8-61.5 81.1 0 9.9.5 13.1 4.9 29.6.4 1.6 1.5 4.1 2.3 5.5.9 1.3 1.9 3.4 2.3 4.7.8 2.9 10.4 17.1 16.3 24.2 2.5 3 22.9 23.7 45.3 46.1 22.8 22.7 40.5 41 40.1 41.6-1 1.5-15.5 5.9-24.7 7.5-4.6.7-15.3 1.3-25 1.3-20.3-.1-32.9-1.9-47.1-7.1-10-3.6-28.3-12.7-33.6-16.7-14.3-10.9-26.8-23-32.5-31.6-10.5-15.7-19.4-38.1-21-52.6-.8-7-.8-7-12.2-7.3-6.3-.1-11.8.1-12.3.6-1.6 1.6 1.2 21 4.4 31.7 3.2 10.6 7 20.4 9.4 24.5.8 1.4 2.8 5.1 4.5 8.2 1.8 3.2 3.6 5.8 4 5.8.5 0 .9.6.9 1.4s.4 1.6.8 1.8c.5.1 2.6 2.8 4.9 5.8 5.9 8.1 17.7 20.4 23.6 24.7 2.9 2 5.9 4.5 6.7 5.3 4.6 5 31 18.4 45.3 22.9 26.5 8.4 27.3 8.6 50.2 8.5 15-.1 23.2-.6 28.5-1.7 4.1-.9 10.9-2.3 15-3.2 8.6-1.8 17-4.9 28.7-10.7 9.2-4.5 10.2-4.5 19.2 1 7.2 4.2 15.4 7.1 31.1 10.8 13.7 3.2 15.5 3.4 32.5 3.4 31.5 0 54.1-5.3 78.4-18.1 14.1-7.5 18.1-10.2 29.1-19.5 11.3-9.5 14.8-12.9 19.4-18.9 2.2-2.8 4.5-5.5 5.2-6 2.1-1.8 12.2-18.6 16.3-27.1 7.2-15.2 11.1-28.9 12.7-44.5.6-6.6.6-6.6-3.2-7.2-2.2-.4-7.6-.7-12.1-.7-9.2 0-8.4-.9-9.9 10.5-1.3 9.5-6.4 23.5-13.4 36-1.8 3.3-3.8 7-4.4 8.1-5.4 10-31.1 34.5-45 42.9-13.3 7.9-30 14.2-46.1 17.1-11.6 2.2-38.3 2.2-51.5.1-10.2-1.6-23-6.1-23-8.1 0-.6 17.2-18.5 38.3-39.7 21-21.2 40.7-41.4 43.7-44.8 5.4-6 18-23.8 18-25.4 0-.4.9-2.6 2-5 2.3-5 6.4-17.6 8.1-25.1 2-9.2.8-28.5-2.6-39.1-1.5-5-3.6-10.1-4.5-11.5-1-1.4-3-4.8-4.6-7.5-1.5-2.8-6.5-8.7-11-13.1-10.7-10.6-23.9-17.4-39.4-20.4-12.5-2.5-19-2.5-30.5-.1-7.9 1.6-24.7 8.6-26.5 10.9-1.8 2.6-17.3 14.2-18.8 14.2-1 0-3.8-2.1-6.2-4.6-17.8-18.4-44.1-26.1-69.5-20.5m39.2 28c8.9 4.6 17.6 12.4 29.7 26.8 3.8 4.6 7.4 8.3 8 8.3 1 0 12.4-12.3 20.9-22.5 1.3-1.7 5.1-4.8 8.3-6.9 3.3-2.1 7-4.6 8.4-5.6 5.8-3.8 9.3-4.5 23-4.5 13.6 0 13.6 0 21.5 3.9 9.2 4.5 21.5 16 25.2 23.6 8.8 18.2 8.1 38.3-2 57-8.2 15.4-8.3 15.5-44.7 52.3-36.1 36.5-58.5 57.7-61.1 57.7-2.5 0-4-1.3-30.9-26.8-29.3-27.8-59.9-59.3-67.4-69.2-12.3-16.5-17.7-35.9-14.1-52 .9-4.1 1.8-8.6 2.1-9.9.7-3.2 6.7-13.5 10.8-18.2 6.9-8.2 21-16.5 30.1-18 2.7-.4 9.3-.6 14.6-.4 8.9.3 10.1.6 17.6 4.4M1285.5 199c-10.4 2.6-20 7.5-26.2 13.3-4.7 4.4-6.3 3.2-6.3-4.8 0-6.5 0-6.5-17.9-6.5-13.4 0-18 .3-18.3 1.2-.8 2.3-.3 169.3.5 170.5.9 1.5 33.3 1.9 35.4.5 1-.6 1.3-13.9 1.5-56.7.3-56 .3-56 2.9-61.5 5.3-11.4 18.8-20.8 31.1-21.7 9.1-.7 16.2 2.2 22.6 9.2 9 9.8 8.6 7 9.2 73 .5 58 .5 58 18.3 58.3 13.6.2 17.9 0 18.2-1 .3-.7.6-26.9.8-58.3.2-57 .2-57 2.9-61.6 9-15.2 29.1-23.6 43.9-18.3 6.2 2.3 13.7 9 17 15.4 2.4 4.5 2.4 4.5 2.9 64s.5 59.5 18.5 59.5 18 0 18-62c0-66.5 0-65.9-5.3-78-6.1-14.1-14.4-22.8-27.7-29.1-13.6-6.5-30.5-7.9-46.3-3.8-10.7 2.8-25.1 12.2-30.3 19.9-1.3 1.9-2.9 3.5-3.6 3.5-.6 0-3.3-2.6-6-5.8-5.2-6.4-11.4-11.7-16.5-14.4-8.8-4.6-29.9-7.2-39.3-4.8m450 0c-34.7 7.2-59.6 31-69.5 66.5-3.2 11.7-3.3 33.8-.2 44.9 7.7 27 23.2 46 47.9 58.4 19.6 9.9 46.8 10.9 67.5 2.5 27.2-11 46.7-34.8 53.8-65.6 1.9-8.3 2.2-11.6 1.7-21.5-.3-6.4-.9-13.1-1.5-14.7-.5-1.7-1.5-5.5-2.2-8.5-5.1-22.4-25.1-45.4-48.7-56.2-13.3-6-35-8.6-48.8-5.8m31.5 36.1c9.8 3.5 22 15 27 25.4 6.8 14.3 7.6 36 1.7 48.9-15.9 34.7-51.7 44.3-77.1 20.6-16.4-15.4-22-41.9-13.6-64.3 4.5-12 17.7-25.2 29.7-29.7 10.1-3.8 23.2-4.2 32.3-.9m-908.1-34.4c-3.5.4-3.5.4-3.5 54.1.1 59.2.2 58.5-6.3 69.7-5.6 9.6-15.2 16.5-25.2 18-5.4.8-15.9-1-20.9-3.5-5-2.6-12.7-11.1-15.5-17.3-4.2-9.1-4.5-15-3.8-66.7.3-26.7.3-49.8-.1-51.3-.6-2.7-.6-2.7-19.4-2.5-18.7.3-18.7.3-19 40.8-.3 46.1.9 75.7 3.3 84 .9 3 4 9.9 6.8 15.4 4.1 7.9 6.5 11.1 12.1 16.3 8.7 8 12.9 10.5 25.3 15 9.1 3.3 10.9 3.6 24.3 4 13.7.5 14.9.4 22.3-2.1 10-3.4 21.1-8.9 26.4-13.2 8.4-6.9 18.8-22.4 22.8-33.9 4.8-14.1 4.8-13.1 5.2-71.8.4-55.7.4-55.7-15.4-55.5-8.7.1-17.4.3-19.4.5m130.1.4c-11.4 1.9-24.5 8.4-35.7 17.8-14.2 11.9-24.6 30.9-27.3 50.1-.9 6.4-1.3 38.5-1.1 82.3.1 22.7.1 22.7 18.9 22.5 18.7-.3 18.7-.3 19.2-50.3.5-45.4.7-50.5 2.4-55 4.3-11.9 11.7-21 21.6-26.7 6.4-3.7 12.2-5 22.1-4.9 8.6 0 8.6 0 9.2-16.9.4-9.3.4-17.6.1-18.5-.5-1.2-2.6-1.5-12.3-1.4-6.4.1-14.1.5-17.1 1m1067.4-.4c-12 .4-12 .4-13.1 4.6-7.7 29.7-11.9 45.4-20 74.2-9.2 32.7-10.5 36.6-11.9 35.2-.3-.3-3.7-12-7.5-25.9s-8.5-30.9-10.5-37.8c-1.9-6.9-4.9-17.4-6.4-23.3-1.6-6-3.4-12.3-3.9-14-.5-1.8-1.5-5.1-2.1-7.5-1.1-4.2-1.1-4.2-18.5-4.2-9.6 0-17.6.4-18 .9-.5.9-10.1 30.9-14.9 47.1-18.1 59.9-19.1 63-20.7 63-1.1 0-2-1.9-3.2-6.8-2.7-11.7-17.5-69.3-20.1-78.4-6-20.6-7.7-25.6-9.2-26.2-2-.8-34.9-.8-35.6 0-.8.8 1.4 10.1 7.2 29.9 2.7 9.3 8.6 30 13 46 12.9 46.2 19.9 71.2 23.1 83 1.7 6 3.3 11.6 3.5 12.4.4 1.1 3.8 1.2 19.6.7 10.5-.3 19.3-.8 19.6-1 .2-.3 2.9-8.9 5.9-19.3 7.2-24.9 13-44.8 19.8-67.3 3-10.2 6-20.4 6.6-22.8.8-3 1.6-4.2 2.7-4 1.5.3 3.7 7.5 11.7 38.3 3.9 15.2 17.8 64.9 20.1 71.7 1.6 4.8 1.6 4.8 20.4 4.8s18.8 0 19.8-2.8c.6-1.5 3.8-12.6 7.2-24.7 3.3-12.1 7-25.1 8.2-29 1.1-3.8 3.3-11.5 4.8-17s7.6-26.7 13.5-47c16.1-55.6 15.1-51.5 13.4-52.6-.8-.5-3.9-.8-6.9-.7s-10.9.4-17.6.5"/></g><path fill="#BF40BF" fill-opacity=".4" d="M444.4 130.5c0 14.8.2 21.1.3 13.8.2-7.2.2-19.4 0-27-.1-7.6-.3-1.7-.3 13.2"/></svg>